<svg version="1.1" xmlns="http://www.w3.org/2000/svg" xmlns:xlink="http://www.w3.org/1999/xlink" x="0px" y="0px" viewBox="0 0 1000 1000" enable-background="new 0 0 1000 1000" xml:space="preserve">
    <g><g><path d="M357.7,461.7h-94.8c-26.1,0-47.4,21.3-47.4,47.4v94.8c0,26.1,21.3,47.4,47.4,47.4h94.8c26.1,0,47.4-21.3,47.4-47.4v-94.8C405.2,483,383.8,461.7,357.7,461.7z"/><path d="M942.6,279.9h-75.1H737.1v-79c31.6-16.6,48.2-47.4,48.2-82.2c0-52.2-42.7-94.8-94.8-94.8c-52.2,0-94.8,42.7-94.8,94.8c0,34.8,15,64.8,46.6,81.4v79.8H500H357.7v-79.8c27.7-16.6,46.6-46.6,46.6-81.4c0-52.2-42.7-94.8-94.8-94.8c-52.2,0-94.8,42.7-94.8,94.8c0,35.6,19.8,66.4,48.2,82.2v79H132.5H57.4c-26.1,0-47.4,21.3-47.4,47.4v58.5v482.1v60.9c0,26.1,21.3,47.4,47.4,47.4h75.1h276.6H500h90.9h276.6h75.1c26.1,0,47.4-21.3,47.4-47.4v-60.9V385.8v-58.5C990,301.2,968.7,279.9,942.6,279.9z M863.5,817.3c0,26.1-21.3,47.4-47.4,47.4H642.3v-55.3c0-26.1-25.3-47.4-51.4-47.4H500h-90.9c-26.1,0-51.4,21.3-51.4,47.4v55.3H183.9c-26.1,0-47.4-21.3-47.4-47.4V438c0-26.1,21.3-47.4,47.4-47.4H500h316.1c26.1,0,47.4,21.3,47.4,47.4V817.3z"/><path d="M737.1,461.7h-94.8c-26.1,0-47.4,21.3-47.4,47.4v94.8c0,26.1,21.3,47.4,47.4,47.4h94.8c26.1,0,47.4-21.3,47.4-47.4v-94.8C784.5,483,763.2,461.7,737.1,461.7z"/></g><g></g><g></g><g></g><g></g><g></g><g></g><g></g><g></g><g></g><g></g><g></g><g></g><g></g><g></g><g></g></g>
</svg>